<svg id="visual" viewBox="0 0 960 540" width="960" height="540" xmlns="http://www.w3.org/2000/svg" xmlns:xlink="http://www.w3.org/1999/xlink" version="1.1"><rect x="0" y="0" width="960" height="540" fill="#001220"></rect><path d="M0 167L26.7 169.8C53.3 172.7 106.7 178.3 160 181.8C213.3 185.3 266.7 186.7 320 181.5C373.3 176.3 426.7 164.7 480 165.5C533.3 166.3 586.7 179.7 640 180.5C693.3 181.3 746.7 169.7 800 165.5C853.3 161.3 906.7 164.7 933.3 166.3L960 168L960 0L933.3 0C906.7 0 853.3 0 800 0C746.7 0 693.3 0 640 0C586.7 0 533.3 0 480 0C426.7 0 373.3 0 320 0C266.7 0 213.3 0 160 0C106.7 0 53.3 0 26.7 0L0 0Z" fill="#fa7268"></path><path d="M0 148L26.7 147.7C53.3 147.3 106.7 146.7 160 143.2C213.3 139.7 266.7 133.3 320 135.5C373.3 137.7 426.7 148.3 480 149C533.3 149.7 586.7 140.3 640 141.2C693.3 142 746.7 153 800 151.2C853.3 149.3 906.7 134.7 933.3 127.3L960 120L960 0L933.3 0C906.7 0 853.3 0 800 0C746.7 0 693.3 0 640 0C586.7 0 533.3 0 480 0C426.7 0 373.3 0 320 0C266.7 0 213.3 0 160 0C106.7 0 53.3 0 26.7 0L0 0Z" fill="#eb5967"></path><path d="M0 102L26.7 99.5C53.3 97 106.7 92 160 86.8C213.3 81.7 266.7 76.3 320 81.2C373.3 86 426.7 101 480 106.7C533.3 112.3 586.7 108.7 640 103.7C693.3 98.7 746.7 92.3 800 88.5C853.3 84.7 906.7 83.3 933.3 82.7L960 82L960 0L933.3 0C906.7 0 853.3 0 800 0C746.7 0 693.3 0 640 0C586.7 0 533.3 0 480 0C426.7 0 373.3 0 320 0C266.7 0 213.3 0 160 0C106.7 0 53.3 0 26.7 0L0 0Z" fill="#da3f67"></path><path d="M0 34L26.7 35.3C53.3 36.7 106.7 39.3 160 43.3C213.3 47.3 266.7 52.7 320 57.2C373.3 61.7 426.7 65.3 480 64C533.3 62.7 586.7 56.3 640 51.7C693.3 47 746.7 44 800 42.7C853.3 41.3 906.7 41.7 933.3 41.8L960 42L960 0L933.3 0C906.7 0 853.3 0 800 0C746.7 0 693.3 0 640 0C586.7 0 533.3 0 480 0C426.7 0 373.3 0 320 0C266.7 0 213.3 0 160 0C106.7 0 53.3 0 26.7 0L0 0Z" fill="#c62368"></path></svg>